# xmcd
#
# Track frame offsets: 
#        150
#        25664
#        43877
#        70519
#        93880
#        121776
#        142267
#        170156
#        201981
#
# Disc length: 3044 seconds
#
# Revision: 0
# Processed by: cddbd v1.5.2PL0 Copyright (c) Steve Scherf et al.
# Submitted via: ExactAudioCopy v1.3
#
DISCID=7d0be209
DTITLE=Johnny Lennartsson Group - Bring The Light
DYEAR=2018
DGENRE=Blues Rock
TTITLE0=Rock 'n' Roll Train
TTITLE1=Bring the Light
TTITLE2=I Will Come Back
TTITLE3=Mug
TTITLE4=Don't Do It
TTITLE5=What Is Best for You
TTITLE6=Can't You See
TTITLE7=Talk to Me
TTITLE8=The King
EXTD=
EXTT0=
EXTT1=
EXTT2=
EXTT3=
EXTT4=
EXTT5=
EXTT6=
EXTT7=
EXTT8=
PLAYORDER=
